<!-- icon666.com - MILLIONS vector ICONS FREE --><svg id="Layer_1" enable-background="new 0 0 66 66" viewBox="0 0 66 66" xmlns="http://www.w3.org/2000/svg"><g><path d="m60.66 44.57c-1.85 0-3.34 3.34-3.34 7.45s1.5 7.45 3.34 7.45 3.34-3.33 3.34-7.45-1.5-7.45-3.34-7.45z" fill="#000000" style="fill: rgb(10,10,10);"></path><path d="m31.33 44.21c-4.31 0-7.81 3.5-7.81 7.81s3.5 7.81 7.81 7.81 7.81-3.5 7.81-7.81-3.5-7.81-7.81-7.81zm3.53 6.49-4.05 4.05c-.2.2-.45.29-.71.29s-.51-.1-.71-.29l-1.59-1.59c-.39-.39-.39-1.02 0-1.41s1.02-.39 1.41 0l.89.89 3.35-3.35c.39-.39 1.02-.39 1.41 0s.39 1.02 0 1.41z" fill="#000000" style="fill: rgb(10,10,10);"></path><path d="m31.33 42.21c.23 0 .45.02.67.03v-35.08c-7.72-4.05-15.43 5.91-23.15.6v35.44c5.13.91 10.35 1.55 15.56 1.88 1.78-1.77 4.22-2.87 6.92-2.87zm-1.9-5.25c-1.05-.2-2.18-.19-3.47.04-.06.01-.12.02-.18.02-.48 0-.9-.34-.98-.83-.1-.54.27-1.06.81-1.16 1.53-.27 2.91-.29 4.2-.04.54.1.9.63.8 1.17-.12.55-.64.91-1.18.8zm0-6.96c-1.05-.2-2.19-.19-3.48.04-.06.01-.12.02-.17.02-.48 0-.9-.34-.98-.83-.1-.54.27-1.06.81-1.16 1.54-.27 2.91-.28 4.2-.03.54.1.9.63.79 1.17s-.62.89-1.17.79zm-17.01-15.4c2.63.51 5.32-.42 8.17-1.4 2.98-1.02 6.05-2.08 9.22-1.47.54.1.9.63.79 1.17-.1.54-.62.9-1.17.79-2.64-.51-5.34.42-8.19 1.4-2.37.81-4.8 1.65-7.28 1.65-.63 0-1.27-.05-1.91-.18-.54-.1-.9-.63-.79-1.17.09-.54.62-.89 1.16-.79zm-1.17 8.95c.1-.54.63-.9 1.17-.79 2.63.5 5.32-.42 8.17-1.4 2.98-1.02 6.05-2.08 9.22-1.47.54.1.9.63.79 1.17-.1.54-.62.9-1.17.79-2.64-.51-5.34.42-8.19 1.4-2.37.81-4.8 1.65-7.28 1.65-.63 0-1.27-.05-1.91-.18-.55-.11-.9-.63-.8-1.17zm11.14 13.38c-3.39 1.11-6.77 2.57-10.16 1.93v-6.85c3.39.64 6.77-.82 10.16-1.93z" fill="#000000" style="fill: rgb(10,10,10);"></path><path d="m34 7.16v35.44c1.7.48 3.21 1.41 4.41 2.65 6.28-.25 12.57-.96 18.75-2.06v-35.44c-7.73 5.31-15.45-4.64-23.16-.59zm2.19 20.87c3.17-.61 6.25.45 9.22 1.47 2.84.98 5.53 1.9 8.17 1.4.54-.1 1.07.25 1.17.79s-.25 1.07-.79 1.17c-.64.12-1.28.18-1.91.18-2.49 0-4.92-.83-7.28-1.65-2.85-.98-5.55-1.9-8.19-1.4-.55.1-1.07-.25-1.17-.79-.11-.54.24-1.06.78-1.17zm-.79-6.97c-.1-.54.25-1.07.79-1.17 3.17-.61 6.25.45 9.22 1.47 2.84.98 5.53 1.9 8.17 1.4.54-.1 1.07.25 1.17.79s-.25 1.07-.79 1.17c-.64.12-1.28.18-1.91.18-2.49 0-4.92-.83-7.28-1.65-2.85-.98-5.55-1.91-8.19-1.4-.56.1-1.07-.25-1.18-.79zm18.56 19.96c-.64.12-1.27.18-1.91.18-2.49 0-4.93-.84-7.3-1.65-2.85-.98-5.55-1.91-8.18-1.4-.54.11-1.07-.25-1.17-.8-.1-.54.25-1.07.8-1.17 3.16-.6 6.23.46 9.2 1.48 2.85.98 5.54 1.91 8.18 1.4.55-.1 1.07.25 1.17.8.1.53-.25 1.06-.79 1.16zm.79-25.62c.1.54-.25 1.07-.79 1.17-.64.12-1.28.18-1.91.18-2.49 0-4.92-.83-7.28-1.65-2.85-.98-5.55-1.9-8.19-1.4-.55.1-1.07-.25-1.17-.79s.25-1.07.79-1.17c3.17-.61 6.25.45 9.22 1.47 2.84.98 5.53 1.9 8.17 1.4.53-.11 1.05.24 1.16.79z" fill="#000000" style="fill: rgb(10,10,10);"></path><path d="m22.93 46.97c-5.68-.41-11.34-1.15-16.97-2.27-.2-.08-.41-.13-.62-.13-1.84 0-3.34 3.34-3.34 7.45 0 4.12 1.5 7.45 3.34 7.45.18 0 .35-.04.52-.1 5.67-1.13 11.37-1.87 17.08-2.29-.9-1.48-1.43-3.21-1.43-5.07.01-1.84.53-3.56 1.42-5.04z" fill="#000000" style="fill: rgb(10,10,10);"></path><path d="m56.8 45.28c-5.63.98-11.29 1.62-16.95 1.9.82 1.43 1.29 3.08 1.29 4.84 0 1.77-.48 3.42-1.3 4.85 5.67.28 11.33.92 16.97 1.9-.94-1.68-1.5-4.03-1.5-6.76 0-2.7.56-5.05 1.49-6.73z" fill="#000000" style="fill: rgb(10,10,10);"></path></g></svg>