<!-- icon666.com - MILLIONS vector ICONS FREE --><svg version="1.1" id="Capa_1" xmlns="http://www.w3.org/2000/svg" xmlns:xlink="http://www.w3.org/1999/xlink" x="0px" y="0px" viewBox="0 0 303.393 303.393" style="enable-background:new 0 0 303.393 303.393;" xml:space="preserve"><path d="M295.391,303.393h-82.11c-4.418,0-8-3.582-8-8s3.582-8,8-8h74.11V16H130.79v28.182c0,4.418-3.582,8-8,8s-8-3.582-8-8V8 c0-4.418,3.582-8,8-8h172.601c4.418,0,8,3.582,8,8v287.393C303.391,299.811,299.809,303.393,295.391,303.393z M122.79,303.393 c-0.059,0-0.118-0.001-0.177-0.002H65.42c-4.418,0-8-3.582-8-8s3.582-8,8-8h49.37v-36.742H8.002c-4.418,0-8-3.582-8-8V78.426 c0-4.418,3.582-8,8-8h229.574c4.418,0,8,3.582,8,8v164.223c0,4.418-3.582,8-8,8H130.79v36.742h49.369c4.418,0,8,3.582,8,8 s-3.582,8-8,8h-57.192C122.907,303.392,122.849,303.393,122.79,303.393z M122.79,234.648h106.786V86.426H16.002v148.223H122.79z M185.68,183.61H59.897c-4.418,0-8-3.582-8-8s3.582-8,8-8H185.68c4.418,0,8,3.582,8,8S190.098,183.61,185.68,183.61z M157.376,153.466H88.2c-4.418,0-8-3.582-8-8s3.582-8,8-8h69.176c4.418,0,8,3.582,8,8S161.794,153.466,157.376,153.466z" fill="#000000" style="fill: rgb(211, 233, 122);"></path></svg>