<svg id="flat" viewBox="0 0 500 500" xmlns="http://www.w3.org/2000/svg">
    <circle cx="229.047" cy="261.835" fill="#ffd980" r="127.927" style="fill: rgb(211, 233, 122);"></circle>
    <circle cx="343.162" cy="261.469" fill="#60677f" r="127.927" style="fill: rgb(149, 166, 89);"></circle>
    <g fill="#fea446">
        <path d="m229.047 78.3c-7.226.223-7.224 10.71 0 10.932 7.225-.22 7.223-10.707 0-10.932z" fill="#fea446"
            style="fill: rgb(211, 233, 122);"></path>
        <path d="m228.315 434.435c-7.225.223-7.224 10.711 0 10.933 7.226-.223 7.224-10.711 0-10.933z" fill="#fea446"
            style="fill: rgb(211, 233, 122);"></path>
        <path d="m50.615 256c-7.226.223-7.224 10.711 0 10.933 7.225-.22 7.224-10.708 0-10.933z" fill="#fea446"
            style="fill: rgb(211, 233, 122);"></path>
        <path d="m99.163 131.8c-4.952 5.266 2.465 12.681 7.73 7.73 4.952-5.267-2.466-12.681-7.73-7.73z" fill="#fea446"
            style="fill: rgb(211, 233, 122);"></path>
        <path d="m98.645 383.623c-4.951 5.267 2.466 12.682 7.731 7.731 4.951-5.267-2.466-12.682-7.731-7.731z"
            fill="#fea446" style="fill: rgb(211, 233, 122);"></path>
    </g>
</svg>